
        <svg xmlns="http://www.w3.org/2000/svg" xmlns:xlink="http://www.w3.org/1999/xlink" version="1.1" width="3162.2002820874472" height="779.2665726375174" viewBox="0 0 3162.2002820874472 779.2665726375174">
			
			<g transform="scale(8.110014104372354) translate(10, 10)">
				<defs id="SvgjsDefs1981"/><g id="SvgjsG1982" featureKey="G09qjj-0" transform="matrix(1.218561075380149,0,0,1.218561075380149,-0.9504776039332042,-0.9504776039332042)" fill="#fff"><title xmlns="http://www.w3.org/2000/svg">Crime Investigation</title><path xmlns="http://www.w3.org/2000/svg" d="M25.88,15.58a17.51,17.51,0,0,0-10.3,10.3,1,1,0,1,0,1.87.7,15.51,15.51,0,0,1,9.13-9.12,1,1,0,1,0-.7-1.87Z"/><path xmlns="http://www.w3.org/2000/svg" d="M37.77,48.48a1,1,0,0,0,.35-.06,17.51,17.51,0,0,0,10.3-10.3,1,1,0,1,0-1.87-.7,15.51,15.51,0,0,1-9.12,9.13,1,1,0,0,0,.35,1.94Z"/><path xmlns="http://www.w3.org/2000/svg" d="M26.58,46.55a15.51,15.51,0,0,1-9.12-9.12,1,1,0,1,0-1.87.7,17.51,17.51,0,0,0,10.3,10.3,1,1,0,0,0,.35.06,1,1,0,0,0,.35-1.94Z"/><path xmlns="http://www.w3.org/2000/svg" d="M37.42,17.45a15.51,15.51,0,0,1,9.13,9.13,1,1,0,1,0,1.87-.7,17.51,17.51,0,0,0-10.3-10.3,1,1,0,0,0-.7,1.87Z"/><path xmlns="http://www.w3.org/2000/svg" d="M37.54,8.87A23.93,23.93,0,0,1,55.13,26.46a1,1,0,0,0,1,.77l.23,0a1,1,0,0,0,.74-1.2A26,26,0,0,0,38,6.92a1,1,0,1,0-.46,1.95Z"/><path xmlns="http://www.w3.org/2000/svg" d="M56.33,36.8a1,1,0,0,0-1.2.74A23.93,23.93,0,0,1,37.54,55.13a1,1,0,0,0,.23,2l.23,0A26,26,0,0,0,57.08,38,1,1,0,0,0,56.33,36.8Z"/><path xmlns="http://www.w3.org/2000/svg" d="M26.46,55.13A23.93,23.93,0,0,1,8.87,37.54,1,1,0,1,0,6.92,38,26,26,0,0,0,26,57.08l.23,0a1,1,0,0,0,.23-2Z"/><path xmlns="http://www.w3.org/2000/svg" d="M7.67,27.2l.23,0a1,1,0,0,0,1-.77A23.93,23.93,0,0,1,26.46,8.87,1,1,0,1,0,26,6.92,26,26,0,0,0,6.92,26,1,1,0,0,0,7.67,27.2Z"/><path xmlns="http://www.w3.org/2000/svg" d="M62.22,31H37.07A5.18,5.18,0,0,0,33,26.93V1.78a1,1,0,0,0-2,0V26.93A5.18,5.18,0,0,0,26.93,31H1.78a1,1,0,0,0,0,2H26.93A5.18,5.18,0,0,0,31,37.07V62.22a1,1,0,0,0,2,0V37.07A5.18,5.18,0,0,0,37.07,33H62.22a1,1,0,0,0,0-2ZM32,35.17A3.17,3.17,0,1,1,35.17,32,3.17,3.17,0,0,1,32,35.17Z"/></g><g id="SvgjsG1983" featureKey="0yvIkK-0" transform="matrix(2.945301542776999,0,0,2.945301542776999,95.70546731774971,-0.20056145923502555)" fill="#fff"><path d="M3.6 15.04 l6.5 0 l-3.2 -7.76 z M7.64 5.84 l5.96 14.16 l-1.48 0 l-1.54 -3.76 l-7.5 0 l-1.6 3.76 l-1.38 0 l6.18 -14.16 l1.36 0 z M15.500000000000002 10.76 l1.2 0 l0 9.24 l-1.2 0 l0 -9.24 z M16.1 6.199999999999999 q0.4 0 0.65 0.26 t0.25 0.64 t-0.25 0.64 t-0.65 0.26 q-0.38 0 -0.64 -0.26 t-0.26 -0.64 t0.26 -0.64 t0.64 -0.26 z M24.5 10.52 q1.02 0 1.75 0.52 t1.03 1.48 q0.4 -0.96 1.26 -1.48 t1.9 -0.52 q3.5 0 3.5 3.92 l0 5.56 l-1.2 0 l0 -5.5 q0 -2.88 -2.32 -2.9 q-1.4 0 -2.1 0.92 t-0.7 2.38 l0 5.1 l-1.2 0 l0 -5.62 q0 -1.26 -0.48 -2.01 t-1.46 -0.77 q-1.44 0 -2.3 1.01 t-0.88 2.81 l0 4.58 l-1.2 0 l0 -6.74 q-0.02 -0.68 -0.1 -2.5 l1.2 0 q0.04 1.48 0.08 1.62 l0.06 0 q0.4 -0.86 1.28 -1.36 t1.88 -0.5 z M36.9 5.84 l4.56 12.42 l4.6 -12.42 l1.4 0 l-5.38 14.16 l-1.32 0 l-5.28 -14.16 l1.42 0 z M56.239999999999995 14.6 q0 -1.26 -0.94 -2.13 t-2.28 -0.87 q-1.3 0 -2.24 0.87 t-1.1 2.13 l6.56 0 z M53.1 10.52 q1.92 0 3.12 1.24 t1.22 3.2 l0 0.72 l-7.76 0 q0.08 1.56 1.03 2.51 t2.47 0.97 q0.94 0 1.79 -0.45 t1.31 -1.19 l0.88 0.74 q-1.3 1.98 -4 1.98 q-2.12 -0.02 -3.39 -1.38 t-1.29 -3.5 q0 -2.08 1.31 -3.45 t3.31 -1.39 z M64.46 10.52 q2 0 3.44 1.6 l-0.96 0.72 q-1.16 -1.24 -2.5 -1.24 q-1.56 0 -2.59 1.06 t-1.05 2.72 q0 1.66 1.04 2.71 t2.6 1.07 q1.48 0 2.5 -1.28 l0.92 0.76 q-1.34 1.58 -3.4 1.6 q-2.1 0 -3.46 -1.36 t-1.4 -3.5 q0 -2.06 1.35 -3.44 t3.51 -1.42 z M70.42 8.1 l1.2 0 l0 2.66 l2.64 0 l0 1.08 l-2.64 0 l0 6.04 q0 0.58 0.34 0.93 t0.94 0.35 q0.66 0 1.36 -0.32 l0.1 1.08 q-0.9 0.32 -1.58 0.32 q-1.18 0 -1.77 -0.66 t-0.59 -1.7 l0 -6.04 l-2 0 l0 -1.08 l2 0 l0 -2.66 z M77.08 15.379999999999999 q0 1.66 1.04 2.72 t2.62 1.06 q1.64 0 2.65 -1.08 t1.01 -2.7 q0 -1.6 -1 -2.68 t-2.68 -1.1 q-1.62 0 -2.62 1.08 t-1.02 2.7 z M80.74 10.52 q2.12 0 3.48 1.38 t1.38 3.48 q0 2.14 -1.39 3.49 t-3.47 1.37 q-2.18 -0.02 -3.51 -1.4 t-1.35 -3.46 q0 -2.14 1.37 -3.49 t3.49 -1.37 z M92.39999999999999 10.52 q0.34 0 0.7 0.1 l-0.14 1.18 q-0.22 -0.08 -0.48 -0.08 q-1.46 0 -2.23 0.9 t-0.77 2.34 l0 5.04 l-1.2 0 l0 -6.74 q0 -0.2 -0.1 -2.5 l1.2 0 q0.04 1.38 0.08 1.62 q1.04 -1.86 2.94 -1.86 z"/></g>
			</g>
		</svg>
	